# xmcd
#
# Track frame offsets: 
#        150
#        11263
#        22459
#        34147
#        45556
#        57768
#        69470
#        80784
#        93958
#        106787
#        119564
#        133271
#        143905
#        154521
#        165247
#        177635
#        188796
#        199584
#        210748
#        222160
#        233417
#        244107
#        257092
#        268088
#        277380
#        290070
#
# Disc length: 4004 seconds
#
# Revision: 0
# Processed by: cddbd v1.4PL0 Copyright (c) Steve Scherf et al.
# Submitted via: ExactAudioCopy v0.90a11
#
DISCID=850fa21a
DTITLE=Wynonie Harris - Lovin Machine
DYEAR=1900
DGENRE=
TTITLE0=LOVIN MACHINE
TTITLE1=TREMBLIN'
TTITLE2=JUST LIKE 2 DROPS OF WATER
TTITLE3=I'LL NEVER GIVE UP
TTITLE4=BLOODSHOT EYES
TTITLE5=HERE COMES THE NIGHT 
TTITLE6=MY PLAYFUL BABY'S GONE
TTITLE7=KEEP ON CHURNIN'
TTITLE8=LUSCIOUS WOMEN 
TTITLE9=MARRIED WOMEN
TTITLE10=NIGHT TRAIN
TTITLE11=ROT GUT
TTITLE12=DO IT AGAIN PLEASE
TTITLE13=ADAM COME GET YOUR RIB
TTITLE14=DRINKIN' BLUES
TTITLE15=WASN'T THAT GOOD
TTITLE16=NEARER MY LOVE TO THEE
TTITLE17=QUIET WHISKEY
TTITLE18=DOWN BOY DOWN
TTITLE19=GOOD MAMBO TONIGHT
TTITLE20=GIT WITH THE GRITS
TTITLE21=SONG OF THE BAYOU
TTITLE22=ALL SHE WANTS TO DO IS MAMBO
TTITLE23=THAT'S ME RIGHT NOW
TTITLE24=A TALE OF WOE
TTITLE25=ALL NIGHT LONG
EXTD=
EXTT0=
EXTT1=
EXTT2=
EXTT3=
EXTT4=
EXTT5=
EXTT6=
EXTT7=
EXTT8=
EXTT9=
EXTT10=
EXTT11=
EXTT12=
EXTT13=
EXTT14=
EXTT15=
EXTT16=
EXTT17=
EXTT18=
EXTT19=
EXTT20=
EXTT21=
EXTT22=
EXTT23=
EXTT24=
EXTT25=
PLAYORDER=
